<?xml version="1.0" encoding="iso-8859-1"?>
<!-- Generator: Adobe Illustrator 19.0.0, SVG Export Plug-In . SVG Version: 6.00 Build 0)  -->
<svg version="1.1" id="Layer_1" xmlns="http://www.w3.org/2000/svg" xmlns:xlink="http://www.w3.org/1999/xlink" x="0px" y="0px"
	 viewBox="0 0 330.012 330.012" style="enable-background:new 0 0 330.012 330.012;" xml:space="preserve">
<path id="XMLID_17_" d="M329.872,14.292c-0.421-7.634-6.517-13.73-14.151-14.151c-3.37-0.188-83.068-3.996-131.433,44.369
	l-30.297,30.297L98.764,60.491c-5.145-1.333-10.611,0.155-14.37,3.914l-80,80c-3.805,3.805-5.28,9.356-3.866,14.548
	c1.414,5.192,5.5,9.229,10.709,10.579l38.144,9.886L25.5,203.297c-2.813,2.813-4.394,6.628-4.394,10.607
	c0,3.978,1.58,7.793,4.394,10.606l79.999,80c2.813,2.813,6.628,4.394,10.606,4.394s7.794-1.58,10.606-4.394l23.881-23.881
	l9.887,38.145c1.351,5.209,5.387,9.296,10.579,10.71c1.302,0.355,2.626,0.528,3.94,0.528c3.926,0,7.757-1.543,10.607-4.394
	l79.998-80c3.759-3.758,5.247-9.225,3.914-14.37l-14.314-55.228l30.297-30.297C333.866,97.358,330.058,17.661,329.872,14.292z
	 M264.288,124.51L158.533,230.264l-58.787-58.787L205.501,65.723c27.973-27.972,71.72-34.146,94.189-35.401
	C298.433,52.802,292.256,96.542,264.288,124.51z M99.54,91.684l29.839,7.735l-55.387,55.387l-29.839-7.734L99.54,91.684z
	 M116.106,272.69l-58.786-58.787l21.214-21.212l58.785,58.787L116.106,272.69z M238.325,230.47l-55.386,55.387l-7.733-29.84
	l55.386-55.386L238.325,230.47z"/>
<g>
</g>
<g>
</g>
<g>
</g>
<g>
</g>
<g>
</g>
<g>
</g>
<g>
</g>
<g>
</g>
<g>
</g>
<g>
</g>
<g>
</g>
<g>
</g>
<g>
</g>
<g>
</g>
<g>
</g>
</svg>
